<mxfile host="app.diagrams.net" agent="Mozilla/5.0 (X11; Linux x86_64) AppleWebKit/537.36 (KHTML, like Gecko) Chrome/133.0.0.0 Safari/537.36" version="26.0.11">
  <diagram name="Page-1" id="30-1-c140cHgGY1jdf64">
    <mxGraphModel dx="1080" dy="651" grid="1" gridSize="10" guides="1" tooltips="1" connect="1" arrows="1" fold="1" page="1" pageScale="1" pageWidth="850" pageHeight="1100" math="0" shadow="0">
      <root>
        <mxCell id="0" />
        <mxCell id="1" parent="0" />
        <mxCell id="RBlReTlnHc9ZyLNr44-u-1" value="" style="rounded=0;whiteSpace=wrap;html=1;" vertex="1" parent="1">
          <mxGeometry x="110" y="98.12" width="180" height="90" as="geometry" />
        </mxCell>
        <mxCell id="RBlReTlnHc9ZyLNr44-u-5" value="" style="rounded=0;whiteSpace=wrap;html=1;dashed=1;" vertex="1" parent="1">
          <mxGeometry x="445" y="90" width="310" height="106.25" as="geometry" />
        </mxCell>
        <mxCell id="RBlReTlnHc9ZyLNr44-u-6" value="&lt;b&gt;Data Preprocessing&lt;/b&gt;" style="text;html=1;align=center;verticalAlign=middle;resizable=0;points=[];autosize=1;strokeColor=none;fillColor=none;" vertex="1" parent="1">
          <mxGeometry x="545" y="90" width="120" height="30" as="geometry" />
        </mxCell>
        <mxCell id="RBlReTlnHc9ZyLNr44-u-9" value="&lt;b&gt;Data Denoising &lt;/b&gt;(OpenCV, Img2GDL)" style="rounded=0;whiteSpace=wrap;html=1;" vertex="1" parent="1">
          <mxGeometry x="470" y="120" width="120" height="60" as="geometry" />
        </mxCell>
        <mxCell id="RBlReTlnHc9ZyLNr44-u-11" value="&lt;b&gt;Data Labeling&amp;nbsp; &amp;nbsp;&amp;nbsp;&lt;/b&gt;(CVAT, LabelMG)" style="rounded=0;whiteSpace=wrap;html=1;" vertex="1" parent="1">
          <mxGeometry x="610" y="120" width="120" height="60" as="geometry" />
        </mxCell>
        <mxCell id="RBlReTlnHc9ZyLNr44-u-20" value="" style="rounded=0;whiteSpace=wrap;html=1;dashed=1;" vertex="1" parent="1">
          <mxGeometry x="445" y="261.87" width="310" height="106.25" as="geometry" />
        </mxCell>
        <mxCell id="RBlReTlnHc9ZyLNr44-u-22" value="" style="rounded=0;whiteSpace=wrap;html=1;dashed=1;" vertex="1" parent="1">
          <mxGeometry x="45" y="266.12" width="310" height="102" as="geometry" />
        </mxCell>
        <mxCell id="RBlReTlnHc9ZyLNr44-u-23" value="&lt;b&gt;&lt;span style=&quot;background-color: transparent; color: light-dark(rgb(0, 0, 0), rgb(255, 255, 255));&quot; data-end=&quot;2537&quot; data-start=&quot;2530&quot;&gt;SVM,&amp;nbsp;&lt;/span&gt;&lt;span style=&quot;background-color: transparent; color: light-dark(rgb(0, 0, 0), rgb(255, 255, 255));&quot;&gt;NB,&amp;nbsp;&lt;/span&gt;&lt;span style=&quot;background-color: transparent; color: light-dark(rgb(0, 0, 0), rgb(255, 255, 255));&quot;&gt;DT,&amp;nbsp;&lt;/span&gt;&lt;span style=&quot;background-color: transparent; color: light-dark(rgb(0, 0, 0), rgb(255, 255, 255));&quot;&gt;RF&lt;/span&gt;&lt;/b&gt;" style="rounded=0;whiteSpace=wrap;html=1;" vertex="1" parent="1">
          <mxGeometry x="55" y="296.12" width="145" height="52" as="geometry" />
        </mxCell>
        <mxCell id="RBlReTlnHc9ZyLNr44-u-24" value="&lt;b&gt;&lt;span style=&quot;background-color: transparent; color: light-dark(rgb(0, 0, 0), rgb(255, 255, 255));&quot; data-end=&quot;2712&quot; data-start=&quot;2701&quot;&gt;XGBoost&lt;/span&gt;&lt;br&gt;&lt;span style=&quot;background-color: transparent; color: light-dark(rgb(0, 0, 0), rgb(255, 255, 255));&quot; data-end=&quot;2731&quot; data-start=&quot;2719&quot;&gt;LightGBM&lt;/span&gt;&lt;/b&gt;" style="rounded=0;whiteSpace=wrap;html=1;" vertex="1" parent="1">
          <mxGeometry x="215" y="296.12" width="120" height="52" as="geometry" />
        </mxCell>
        <mxCell id="RBlReTlnHc9ZyLNr44-u-26" value="&lt;b&gt;Heartbeat Classification&lt;/b&gt;" style="rounded=0;whiteSpace=wrap;html=1;" vertex="1" parent="1">
          <mxGeometry x="330" y="440" width="150" height="60" as="geometry" />
        </mxCell>
        <mxCell id="RBlReTlnHc9ZyLNr44-u-29" value="" style="shape=flexArrow;endArrow=classic;startArrow=classic;html=1;rounded=0;fillColor=#000000;" edge="1" parent="1">
          <mxGeometry width="100" height="100" relative="1" as="geometry">
            <mxPoint x="50" y="570" as="sourcePoint" />
            <mxPoint x="760" y="570" as="targetPoint" />
          </mxGeometry>
        </mxCell>
        <mxCell id="RBlReTlnHc9ZyLNr44-u-32" value="&lt;b&gt;Abnormal HB (Heartbeat)&lt;/b&gt;" style="rounded=0;whiteSpace=wrap;html=1;" vertex="1" parent="1">
          <mxGeometry x="195" y="640" width="95" height="60" as="geometry" />
        </mxCell>
        <mxCell id="RBlReTlnHc9ZyLNr44-u-34" value="&lt;b&gt;Normal person&lt;/b&gt;" style="rounded=0;whiteSpace=wrap;html=1;" vertex="1" parent="1">
          <mxGeometry x="95" y="640" width="90" height="60" as="geometry" />
        </mxCell>
        <mxCell id="RBlReTlnHc9ZyLNr44-u-35" value="&lt;b&gt;Stroke&lt;/b&gt;" style="rounded=0;whiteSpace=wrap;html=1;" vertex="1" parent="1">
          <mxGeometry x="305" y="640" width="91.05" height="60" as="geometry" />
        </mxCell>
        <mxCell id="RBlReTlnHc9ZyLNr44-u-36" value="&lt;b&gt;MI&lt;/b&gt;" style="rounded=0;whiteSpace=wrap;html=1;" vertex="1" parent="1">
          <mxGeometry x="415" y="640" width="90" height="60" as="geometry" />
        </mxCell>
        <mxCell id="RBlReTlnHc9ZyLNr44-u-37" value="&lt;b&gt;MI History&lt;/b&gt;" style="rounded=0;whiteSpace=wrap;html=1;" vertex="1" parent="1">
          <mxGeometry x="520" y="640" width="95" height="60" as="geometry" />
        </mxCell>
        <mxCell id="RBlReTlnHc9ZyLNr44-u-38" value="&lt;b&gt;Arrhythmia&lt;/b&gt;" style="rounded=0;whiteSpace=wrap;html=1;" vertex="1" parent="1">
          <mxGeometry x="630" y="640" width="90" height="60" as="geometry" />
        </mxCell>
        <mxCell id="RBlReTlnHc9ZyLNr44-u-41" value="&lt;b&gt;12- Lead ECG Image Dataset&lt;/b&gt;" style="text;html=1;align=center;verticalAlign=middle;resizable=0;points=[];autosize=1;strokeColor=none;fillColor=none;" vertex="1" parent="1">
          <mxGeometry x="115" y="155.62" width="170" height="30" as="geometry" />
        </mxCell>
        <mxCell id="RBlReTlnHc9ZyLNr44-u-42" value="&lt;b&gt;Feature Extraction&lt;/b&gt;" style="text;html=1;align=center;verticalAlign=middle;resizable=0;points=[];autosize=1;strokeColor=none;fillColor=none;" vertex="1" parent="1">
          <mxGeometry x="540" y="260" width="120" height="30" as="geometry" />
        </mxCell>
        <mxCell id="RBlReTlnHc9ZyLNr44-u-44" value="" style="shape=image;verticalLabelPosition=bottom;labelBackgroundColor=default;verticalAlign=top;aspect=fixed;imageAspect=0;image=data:image/jpeg,/9j/4AAQSkZJRgABAQEASABIAAD/2wCEAAgGBgcGBQgHBwcJCQgKDBQNDAsLDBkSEw8UHRofHh0aHBwgJC4nICIsIxwcKDcpLDAxNDQ0Hyc5PTgyPC4zNDIBERISGBUYLxoaL2NCOEJjY2NjY2NjY2NjY2NjY2NjY2NjY2NjY2NjY2NjY2NjY2NjY2NjY2NjY2NjY2NjY2NjY//CABEIAL4CWAMBIgACEQEDEQH/xAAcAAADAAMBAQEAAAAAAAAAAAAAAgMEBgcFCAH/2gAIAQEAAAAA7+fh+gAAAAAAAAAAAAAAAAAAAAAH4foebCNhQYnRRlZRp0FBiNidFZRlGUZWnQjZWUYnRRlabNOguZnfpgTx8g5/vv5QjX8Ss6T1HaKWJsDRsQ8nG2ZVpJnmzK0fO9eNlBafkrTZvL9STtGxO/oBgRx8heN9iKEbKtJ0nzfeM6xMYbHyCOr4+7TKTKTGWkeWdZx8hRSiztMXlvWJO0bE7+kGHiRscN7gtCNlWk6T5nvXoWJsMRsR1GO9KtJ/rzZlaPHuzxsoLQnSbY/K+vTZo2EyfRCeBGx8+/QC0I2VaTpPle+etYmwxGxHSY9CVaTZpsytHiXc42UFoTpNsHlPZps0bC5eUEfOjY+cfoxaEbKtJ0nyffPasTYGjYjoc+jKtJs02ZWjwfv0bKC0VaTbyeW9qmzRsL67BhwjY+XfqBaEbKtJ0nx/oHvWJsMRsQ55PpyrSbNNmVo/O/0hj2UFoTpNvB5X3SbNGwvqfoYONGzfKv1MMRsq0nReM9B2GxNhiNiPNTqCrSbNNmVo/Nv01j2UFoToprfLe8TZo2F9WgefLHyF+WfqX8os7KlZ0nxPomzWJgzY+Qs+Yr1aZSZSYy0j8v8A1Nj5CilFnaZqvMe+Qq2PkE/Wc/MGePkT+X/qJaEbKtJ0nw3pG0WJsDRsR5e3VFWk2abMrR+W/qzHsoLQjababzvvE2aNhfTYl5LRth/Ov0otMDxNqVaTpPh/QtssaRuoNGxHma9UVeadLZpsytP5h+oJ2XWdmWirSbaPpfbptjJnCey5i4jY+R5PBfoilORx7Eq0nSfD983K2s8c73mDY+QR5nPq08PhvWtmaZSdIfMX1BPI0HS+3FFnaZoOq9sm3I8rqhP1v0xcYx8jweO90yMHR/N69NaTpPiO7btbkm+630BiNiPM5dXXlu/6H09psytjfNX0s1ePeh0xqE6TbnPg9mn4+q+P14X02MHEbUdo1/mvXs7knWee7xnLSOD6HF9u3jxdd6Byvqg0V8DYeaz6p4WldS5P1Zps2te/H57+gsjm+5YeLt1CdNc2Hmfn9enx/sXJeuC+nY8/nS6/PKjtmpb9sut+Fv8A43kabmPr2xpbqE+W9U8/ScPy/aXy4+qdRpyHqKaLiwz/ABb6xvGDtG5LynqmBrk/DvheB7+1ah0LYeabv6mMmwmk1b0peD5Ws9eyCPNJZez+h6mH5HEfoPOJ67p79FbMPFzeNduZaedoWRuXoMGJqE96spqOr5+0r6WZ4Jy3o2x5LY/JM2m57oY+ERsYNLUI2VaTpNsLJsTYYjYjbGyVWk2abMrRsRsoLQnSbN4Xuydo2F/fV/Y4Rj5AotCNlWk6TZo2JsMRsRtOirSbNNmVoXI2UFoTpNmnSbNGwp6n7Dy2x8hVCizsq0nSZSNGmDNGyztOkykykxlpGjRsopRZ2mUnSbNGyq3tfv5564+QKLQjZVpOk2aNibDEbEbToq0mzTZlaNiNlBaE6TZp0mzRsTp6X6YMsfIFFoRsq0nSbNGxNgbHyCNp0VaTZpsytGxj5CgtFnabNOk2aNieZlh5+POgoMToKyso06CgxOhOisoyjKMrToToCjE6KMrKxOgvo5IfgAAAAAAAAAAAAAAAAAAAAAAAfv8A/8QAFwEBAQEBAAAAAAAAAAAAAAAAAAECA//aAAoCAhADEAAAABoAAAAAAAAAAAGRqaslslEpJpCpSyBUoJbAlsCUsGBqaslslELJpFslLmUVKCWyKlSiUsGBqauZqyUQsmkWyUuZRUoJbIqVKJSxGRuW5mrJQLJQslLJQAslRQEqUsRkbluZqyUC5mkWyUuZqyUEqVBQSpSxGVVUVFASWxUlLFRQCLBQAQGVaElqFSiFsgLFhSwIolLCKIpgblsioqCpUolLIKAlLAlSiUuVYJtQslAAEUAAARQABFvMaUEWKCKElKCKAixSKAixWBVAAAAAAAAAAARP/8QANxAAAgAFAwQBAwIFAwQDAQAAAgMABBMUIwUGEgERIiQHMjNhFSEQFyBRUggWNBgnQEElQkMo/9oACAEBAAEMAP6u/wCY7/mO/wCY7/mO/wCY7/mO/wCY7/mO/wCY7/mO/wCY7/mO/wCY7/mO/wCY7/mO/wCY7/mO/wCY7/mO/wCY7/mO/wCY7/n+Pf8AMd/zHf8AMd/zHf8AMd/zHf8AMd/zHf8AMd/zHf8AMd/zHf8AMd/zHf8AMd/zHf8AMd/zHf8AMd/zHf8AMd/zHf8AMd/zHf8AMd/zHf8AMd/zHf8AMd/zHf8AMd/zHf8AMd/zHf8AMd/zHf8AMd/zHf8AMd/zHfp/TN0Sevmsi6iuVrlgLswU2REKy5kErXHAXYQl82Ao4S9JOMuXCXuy6Uy4kEvbMKmXIglai8BcRCXqMwFCQTZJ6ksuVOWrDhPjwl6bsZwwJf1+KygVytcsB8eEvbcqZciXLVxwFxWEvUmOSyinL0U4z5U5atxolxcCbJxCsuRBL1F4SgQlajMBcacvbLKmXIly92PSmXGnL03Yiggl8OAoEJWuWAuKxTZciWfMlytdeA+IhL8mYChgIop60y5U5atxolxJcvQYVM+RLlqi8BQsJe5cPVZ8eEvbLKmfKnK1hwHxIJejMYy5cJfinGUCuVrlgPjwl7blTLkwJe7SIrLiIS/J2E4py9BOMu/CWrcaJcRBFs4qZciCXqLwFArlajMBcWCm0EqZ8iCVrCNA+PCXpuxnBBL8U4CgQl7tg0y48Je2IqZciCVrLwHx4S+bAULCXtpciWXLhLVuNEuJBL27CpnycuXry/FZcRXK1mYD48Je2EqZciXK1xwH2WEv7HJZRwl+KcRQK5WsWAuLhTZMIVlzJcrUXgPsIS9RmAo4S9FJUy5Sz1i63AC6D/Gbq118eHYa1yzxVDqtgX0cSrXK/FUDWzeKo/3bq3840bZqq/TRrX5eIdyq2jvEIZWrJ8VQNao7xVCalgn6O2a5HxVGak7xCHVPV8Qga1yXiqMtoXiHEq1dfiqE1qs14hHyTuPU9r7JXqGnEgJjTJmYnJKTmjFXN1WwmPo7FWqJ8VQutXZ4qgatovxDiVa/HxDvmpzHiEFWw+IQNa5Z4qhVT9O+kOLK1ZfiqBrcneKoZUtpfxCN56pPaPtPWNRlSAJnYuqT+tbAkZ+eYDZg61VPiqE1ruY8Q7jVtF+IcSrXI+KoZUtprxCM1OX8Qga1yXiqMtoXiHFla9T4h3Gtyd4qjNQT4hGa5+lULq2kx9ETu5ZGT3PIaA9wjqQVqzPFUMq2C/o49a1wPiqM1OY8Qgq3GX8Qga16zxDlltC8Q4srV1+KoGt7HiEKqWkr4hxzXP0qgqts7xCG1rmX8QgSdXZ9qNI12R13TDdpc2iaSVa5HxVCqnGa8QjNTl/EIGtcl4qh1WwZ9HE61ZfiqF1qjvFUDWtk+IRL9GX5EQh2/jO8a6eTOMDSrl7Jw7hYFn/cqVdfslA0s2coB3T/AKj15I6Ur0s5cS4Wzs5QylUX7JQNKo72ThPCyTn8sVyPslGKm7OUO4ernKBpVy9ko8LQs8FSrr9koVwqTWc4+biAfj2V6C/v121SLb2j54dwspjP5FSqJ9koXSrs9ko8LRecoLhejnLjipuzlBUsOcoGlXL2ShfCw+/5FSrr9koGlydnKGcLaXzx8nkA/H+udn94+KyAvi7T8nbqylUX7JQnhdzGcoHhaLznBUrkfZKC4UJjOUYqcvnKBpVy9ko8LQs8MpXac5wNLk7OceFBOcoxXP8AyShfC2mM8bkZ0/6gdu9OjO/QKVZnslDOFkvP5daVwPslGKm7OUFS4pzlA0r1mco8LQs5wVKuv2SgaWbOUL4WkvnjFc/8koLhbOzlDqVeXznDyUKpwrk4+DTEtsax0JhdIKlXH2ShfD2s0Yqac5QNK5L2ShvCwZn8ipVl+yULpVXZygeFsnOUSpBfl0FpH/RO9OvdZivnAtKsXqNhzCsCG2MYJpV1+m2BcWb1Gwh/Uv8AUUJUy6x0cV6RWjYJxWzPUbDHFUX6jYFxVGeo2EsKySNsRRWKuPqNisVN3qNhjS9X1jgXFXL1GxVK0L1GwTirr9RsKcVWY9RpR84NItkaaFAgjareW19FIZYyFzCspgbYxgnFUX6bYFxVWeo2KxWy/UbBNK9ErRsVipO9RsE4sPqNgXFXL1GwthWHG2OCcVdfqNgWlyd6jYYwraX9Yo+WH9R+PdWwGEfEruv8spUaBHBOKov02wtpXcx6jYqlaL9RsE4q4+o2CcVCY9RsVipy/qNgXFXL1GxVK0L1GwxxXafTbAuLk71GxWKgn1GxVK5/4jYWwraY9Y43O/8A/oXRevVZdIFpV2eo2GMKyEbY46uKsPqNisVN3qNgmlxT6jYFxXrCtGxWK0L1GwTirr9RsC0s3qNhbCtJf1iiqVf/AIjYJxWzvUbDWlXl/UaMai8lyGpHbEMfBDi/Q9aCmRwTirj6jYWwva9Y4rFTT6jYFxVy9RsOYVkwbYxgmlWX6jYFxVWeo2KxW6fUbEry6zhF1WQf0M6cl9YEXXLMoQ4W2BeQcSF1yvKECLeTsgxIu6l/qD6H049xFt+XmPIhbaO8hhgtrpyhAi6o7KEJFtgnzHjxdcjlCOLaTvIYcLfV8xgRdcllCOLbQvIIIXV15QhQtqzXkMfOvMdp6L06l36bL5s2joZCQcXC2wmPMexC6onKELF1dmUIEW2i/IYIW34+Y8uLaUx5jBC3DlGBF1yzKEKFv6d9Q8WC6uvKECLuTsoQwW20v5jHzH1Nfx/PciGPhzqZfGQ8SDswXVU5QhItu5jyCBFtovyCCF1yOUIYLbaa8xji2nL+YwIuuSyhHFtoXkHFgtvU+QchFvJ2UI4toJ8hji65+6ELFtpMeQxucz/6h9P8g5iLq7MoQwW2C/IeJC64HKMcW05jyGCFvGXyhCxbes8x5cW2heQcWC6uvKECLfYyjChbaSvmPHi65+6EELbZ3kENFtzL+QRrvVq9A1o6ox8DdTsteDoXaCF1yOUIULeM15jHFtOX8hgRdcllGHC2wZ5BxYLq68oQsW1HZQgRbbJ8ghKDFhNNnL+h/an15F26Db1y/wAXUbAv8it66/7Lt+To09ol84JMvLoNvel/iVvbM/yO3qLgbeqyFW9knl9Xr1x/x9em6GW/qwNvXL/H17Qv7lb11/2Vb1ZjlHzqSv0LQQD6tjFLlsrQSKHW9lMcfqK3qLgbeoyPXtl/5Fb3o/29em6Ct8MDb1y/xXRsPyVvXX/Ybfk6GW9tL/5fNDFDsNgh9XwwSi+O3Cf1Fb1Fwu3u5j+3r2i/8it64/2K3oTH+Xr05eBt65f4+vaF/dlvdp/xG35Oj16Cf8vXufwu3tpj/Lczl/z9WX/5Db12QyjZD/kVvWH+3r03QVvxTA296z/H17Qv7lb11/2G3zQu3tJf+/r1/wAFb2zv7ut60vx+ndRS69p68QlHwUQVdeA4K3rj/iuh7EevTTA29cv7Nt7JnH6it664G3qMgbein+4/T0/onCMSTxHlAk25ZiCHE2wLxDiRNuV4ghZN5MxBGkv/AO7Uq/6o5NvyxhyIm2jsQQwm104ggSbUdiCEk2wTiDjybcjjCOTabsQQ4m+riCBJtyWII5NtCxBBE2uvEEJJtWaxhHzyZ2G3Q6jHx6xpbE0HisIcTbCYxB2Im1E4ghZNrsxBAk20XiCCJt+OIO/JtKYxhBE3DiCBJtyzEEKJv6b9IcWE2uvEECTeTsQQwm20viCPnEz/ANmJEh7R8Imf+wZ4eg9+jCbUTiCEk27mMYQJNtF4ggibcjiCGE22msYRybTl8YwJNuSxBHJtoWIIYTb1OIeQk3k7EEcm0E4gjk25+0ELJtpMYgjczj/now/p6iTbl2MIYTbBfiHEibcjiCOTacxiCCJvGXxBAk29ZiDlybaFiDiwm114ggSb7GMIUTbSVxBHJtz9oIIm2zsYQ4m3MviCN7uavZW4iIQGPgo+o6lrYD5QRNuRxBCSbxmsYRybTl8QQJNuSxBDibYMxBxMm1l4ghZNqOxBAEdGX5D+39E8JESRFvUIFR1y9tsOSVgRXJwSjrr9tsKUdRnttjR+/wDvORmuXGKJ37BuygknbM9k4Yk6i/cbApOqz3GwlJWSSuTGKJ1x9tsUTpu9tsMUfq+ycCo65e22KJ2heycEo66/bbClHVmPZMY+de4/7dDq4jj45A2bC0PrcmMOUVlMFcmUEk6q/bbC0nXZ7jYpHbL9k4JR3ojdnFE6bvbbBKPD7jYFR1i9tsLUVhyuTgknXX7bYFJ8ne22GJO2l/ZOPnPuvbOngTzOPhDkzZurDWIIJJ1V+42FqO7mPbbAqO0X7JwSTrj7jYJR0Jj2TiidOX9tsCo65e22KJ2heycMUd2kbtsCk+TvcbFE6CfbbFI7n/lthajtpj2Tjch/94Jzr1IusUTuHe22GKKyErk4JJ1h9tsUTpu9xsEo+KfbbAqO9YN22KJ2heycEk66/bbAqPN7bYWo7SX9k4pHc/8ALbBKO2d7Jw1R15f2zKPkITXsHcRXJFHwd3LcOrALCCCUdcfbbC1H7XsnFE6afbbAqOuXtthySsGFcmUEk66/bbApOqz22xSO2T7Jwrp1FQj1Ll/RPdQrJEl8oGlXLAcOpWBYPIqVdeA4GkNYqBxpo9BHSZzjBUr88J9ipWzMBwdKovAcDSqOwHCaVknB5YrkcBxipuwHDKXrYYGlXLAcYrQsEFSrrwHCqVSawHHzqXS90AOg9o+NCAtgaHyX36upWUxh/cqVVOA4XSrswFGK0XgOCpXo4fHFTdgOCpYcBwNKsWA4XSsPseRUq68BwNLk7AcMpW0vhj5w4FI6CoV8I+E+A7e19XVfeDpVF4ChdK7mMBwNK0XgOCpXI4CgqVCYwRipy+A4GlXLAcYrQsEMpXacBwNLk7AUYqCcBRiufsFC6VtMYI3Cz/uXqDRHj0xXLsBwylZLweRUrgcBxipuwFHWlxTgOBpXrMB8cVoWCCpV14CgaWbAcLpWkvgjFc/YKCpWzsBw6lXl8Bx8lkA/Hu4OKu0fC49E7wngMe8FSrjgOF0vawxippwHA0q5YDh1KwZg8ipVl4DgaVV2AoGlbJwFA9eQ9OvT+iZI2MX1Dh2Gtcs+1DqtgX08SrV1/ahxOXLTjMUSy+q9laLNfTBVv1Jn2uRVbR30QytXT9qBrVXfahNWwT9PHNcj9qM1N32odV9X6YGvcl9qMtoX0cSrV1/ahNWrNfTHzqR/rWh9OvGPiyqXx3ovHhDqthMfR2KtVT9qF1q7PtRltF/TxKtfj9rlmpzH2oKth+1A1rln2oVV/Tv/AKcWVq6/tQNbk77UMq20v9MfM3NmqbTR149/hzmK93K6cYZWqJ+1Ca13Mfa5DVtF/RxKtcj9qGVbaa+mM9OX+1A17kvtRltC+jiytep+1yGtyd9qM1FP2ozXP/5QmrbTH0RrXJmu6tNQNYnMLFDKv6ev6eJVrkftRmpzH2oKtxT9qBrXrPtcstoX0cSrV1/aga/sfahNW0lfp45rn/8AKCq2zvohtW5l/tR8rE0fjvWu/CPiwesv8hcB/bqVe5H7UJq+19MZqcv9qBrXJfah1WwZ9HFlasv7ULrVHfagRcUsnjwgenYenT+MyzouWYRFxgnSuH2YF0pXL2fFjpeyIRf5E6Urj7P7apMyy9H1QxmfIhAfifRW8vMXyxTfO58SdLWzPZ8mOlKi/ZjVtb0vQ9NntTnJwukvsre+mbu0hhKBso+tKVx9nxrS1N3swx0t6/aZgXSlcvZ/atLWxez5E6UrL9n9kulqkxymY+ZiB26tNAC5R8VtQPx7pPN/EnOlrJwjM+ROlKq/ZhbpSqz2YH5N0Yt4q2wAvKCdLXolc+NaWpu9mCdLYfZgXSlcvZ/Zbpey41/InSldfs+IulOTPZhjpajL+z5fKhJdvPZKgbzD4lYlepb0UbOEE6UqL9mFulrl3KZ8a0tbL9ny3T8uL0HeHTTpSTupKvKMlHGEzyGtLcU+zAulK5ez+1aWtuNz5MdLXaSuf2F0tyd7MVpagn2fKtKVv+T+yWy1Nw1/3nezNN1Sa5ful8ty5FMwxsvZCNfyJ0pWH2f2rygqmCKb7Dtffmi7ufMIkyekxbLXbCuf2rS1oXs+ROlK6/Z8a0tm9mFulrZHs+VaUr/8nxJ0tbO9nya6Wry/GZ8flx6P5eakIP5lsilL/KMiJN49CbKVx9n9lulvY7zMVpbin2Y1HWNJ0eWdPz8+KZWU1TTdU0MZyRnRcgnSlZfs+IulKjPZgXywpT1uf3EuhD069P36R0icPqKS6CvlBEeHBAkdyzBDSKwLFBEddeCNyu6r2rrx0onVdV/BeinxiWYRNWVCCIrR2CGEddeCPkFsxvPf0hsiS5ijbig2n8zzGlIXSkuR3I4I5FTdghxF6uCBI7ksEcitCwQRHXXghJFVmsEfKnd2/wCVDj26/ER9f5d6b2VyhpFYTGKCI6icEb63N/tXauoT4jwmtU2a/QvjLSd0Uy6arpuodNURI6ipfcORU5jBBEeHBAkddmCFEX6d9qGEddeCBI+TsEMIraXxR8jF1d8o7FVS7dfi3r1XujfKug9+jCOonBCSK7mMEapqgaPtyY1F68Wm7ddqnxTuTcE2sjnNh6l11T450+ZIeRcipy+CBI65YI5FaFghhFepwQJHydgjkVBOCOR3P2IWfUZaYKnDR5fH+qTPGJJhEsSoQwisF4oIjuBwR8sbm66LtF0gge07tjSHbA+VNBkX8uwkV6zBHIrQsEER114IEjzYIURWkrgjkdz9iCLrbOwQ4iuZfBHzQfUdgTmPtGgD1l/l/Qx4wRHcjghJF7WCORU5fBG+ert//JEns+TIwlPh6eaO2Na0R45TI668ELI6jsECRWycf8ekTo9Sly4lxgltw5YFbblmWGidgWXxJbbleWN5k1extyHVjWEdR/076KfL9tO6MNcr1q/uQttHZY3LrAbb0WY1aZb4fD2jTTJHUN16gXv/ACMPXR93bJ3Fy7CS23P3Iptpuyw4WerlgVtuSyxxbaFlgltrrywoG1ZrLHyB0NnyeQcv3+HO5fHcjwbxhwtsJjL4kttROWN3LPfHy3IbVW2pIbs0k9Y2JqUgJR8OakepbNlUVMtNtOYywS24csCttyzLCRP9N+74sW2uvLArbydlhgttpfLG9+hn83bLSR9+vx0Jh8h79Vy8mLbUTlhK23cxlj5Y1eZnFaTsrTm851G3Uyu3l7fUXq/C8yz/AGprGjmzs3g2nL5YFbbksscW2hZYYtt6nJArbydlim2gnLFNtz9yCFg6fOFUin1L4cnHxpdQ5KX614YJ2C8viwTB3I3j0HRAP5I+T5zXz89F+Z5Z0jKbf3Iou7ZR14y5UzuHFtoWWGLbXXlgVt9jLChbaSuWKbbn7kEtts7LDVtuZfJHzdzHYxdOpd4SHVHzLtfpygltuRywkW+1ljd2u9Nq7VdqzW8i+INvTcnpM1r88Xv7e56P80bo0zl2Bi2115YWttR2WBFtsnLHT6en8Okahwp9eY8oK3w4oG3rli8d0b929tdsvIT1U5pEzITy5ealSF8v8gElfx7uLqI/vrqQH/Tro/j56CSS0vTetP8Abim2Zi8t/aonfW6tM2ZoTecvKS0jJoGVlkcEfMMiEx8cpmgHLoU7L6loulz3DvHr03Y4Zb+r4wNvXLF4tZKJkGNbwANJ3Ht7cTCLR56XnOirepMeMbqHo75a1Aen7dPhokl8eyvMe/V1GymOI+W9d0adtHQin2iPWY+JdvNkdLnNd1hRlqY0LZeKPjQFaH8jbq280cXr03eMFb4cUDb1yxeK6Nh9PlqU9pulyzJ2dIUy22N/bX3VNTErIOaubZRtpfx8tw03fP8At0Og+GxqS/lTfQdR8St6i8cbl3PpW05Cc1Gd/cvjbb01PTc1vfXxIp317kcUbbpaH80bo0rj2R69OX8YG3rlij17QvHyZb3afHxG35OxRru+dr7dmZaR1Gb4TUpM6dPAuak2C+WmySOjakXHyAOn8iJg/wD76EUuWjyJEqGUbIfHy+T9ynNTKdmbdGrqe1duSO19tL0tQ8z+RtLVq3x/qUspWf4t1ROrbI08z8j9e0Lx8it668UDb5sULo2kv4+XGXuftx/vXapatMaH+pKHUHDL3Mvij5wJQ7RQID2jVBBPzPtH+xW9ccXiuh7XjGqPH5Q39K6PJ8/9urXKLZTBHEN7iGk/Lm2dVAeKmDL114oG3qMxRgt0+H7o40R4ft0jpGqzPSTk2PYaFJnfmbbErNigXnMdC+atsCiYmFNM27M2ee6JTVN27mlhmOunT+rfD24R0rVec1tveHyboG4Nma5p0nM9pjcaXD/pz0voQq4aTvfQ9L25p5zmrSAHM7l3Z8ndXaftuWPTdE2jsqU2XKLRJIUc0JTNV2JUbvkJnVvjvUpFaAMviDcI6ltGU05Rq6zfKZpuxK7a/ujTtujKnq09KysL+Vtpkwj/AFmVGNzbmnvkjUk7R2yXoa18Xajt98rrGyXnL6hpvzVLINkruLS3yE+OqS+4vkvXJ+QYDZf4r1+R0H43TMajNysqnUfl2Z1Stpm0tEbPu0f4413Vtel9d3zNjPvWUzUZiVHKZtF4lcdxk7bvztoeqEKgDlNit2NUa3rqdv6WOo6q1EvKs+ctsrYXUFTRx/PPRhlqCtKn2xP6nrPzJrUppctIv03Q95/G5DIp1ba0sMlqel/NGiTGjyfTVecvP6Tr8ru354k9T0vKjT9ySO2PljeMzqjxQEz8zu1F3SX2xt2an5nRfj3XNya7+vb5aMw4SmBlFiKlCBFN3I4lcvkRh7d+S9B3K0eCJLUg1KWl2yL5OaVqOvyWikxupz0hKDqHzZoEr68qh8+XX510wnraWiT/AEid+a2ajLOldu6JNnqW1/i1SdOdObnQrUtTbJ7j+HdSOdkOWpbanfmZU3p8+iQ2/OvlKTB/09F1IfBPy7oOg6Lp8vyOfmn783vuqSs9u7YbJK2JsEtosZOTJKnda5TNN2NUMuGLWBqUQfFrz2vuvcm05g1AYsmCkuQigg1vcsjoFNurT0nJx/NzaYkz/wCSV1gfl3aq0JC/5RuT5OfuIk6FskTdPp+GdM67StJjj+q6BvPU9l647bG8ptRq+RvkTTN6aXKycih6j3o8ZH5c2fOTJKUp/wAubTS7v+qqONU3prnyE1+g7PlGqk9p7XVtHQ0SEmtRdRKbuSxK7/MOkzs1tqR1iXWHU9A3D/ubR5HVpMVcFlN1HY1Q2aOVkknMFKpVo+6tL1bUnadKalJTUxHWN+bETvEpAprUpqXk9O2dtvSZJMrJ6bKipmztrTDiq6NppQS1L0zgtnENY0fTdclrHU1BNS2o/G20NUlOsu3T1Ij5J06W034eZIypFR+MvjjQ9Y28vU9dlq7US0tJ6aUvLECEsEai85wPGo7OUJ42Sc5jGv7F3JJ73mdY2ZqUrJCWyPkWVFk1Lb5Fs1onxJpku9M/uSdPWdQ/l3s0nF30SS7aToGj6HJOHS5ZEnBCNdfsnD9N0/UroJ9SJoJLZG2tNqvkJJUq7Yu1emtb7HQNV5NkZbTZDS9HdLSClSqCHpVTnOF8a7PZKPG0XnKN4bK0veVuifmXqPp8d7y0cT6aFvkrdHxjres6rKTO9dyBqUojQtGSwhVIyQCiWllyHhSCC7V15z4jx5O9k4mds6BMCt7dMkDbJaNpOmzZFIS0rK9R0KX1z591ZE4APlUyktJilUrwQpPa7mM5QPG0XnOCEbkfZONY0jTta0mak9TUM1LzPwnoBGtshq8/JddN+FdsS8wRz83O6iem7e0bR5Cnp0nKysMUm7T5BC1qEncW8Y8aCc5QS1MaQMZUCTlJaT050vK8JdPzGoP5bzAgzx+KdoyOl7VlZ+allfqTO1kvOcEI3A+yceNN2c4LjxTnONzfG2393a0U5PNmFTB/FOs6KJN2pu98qrSfhzRUTYzOvz79Zmx2JtAaw/oemwnZW1RlkkOh6aJafoGiaTOk3TpGVkzLjbOznGv7I27uDWJOf1SWuH6lsHa2sOl7qRUEfOCSZruhirkZ6L8c7Y03TpGWmdLkpiakZSUkZd8vK8JdPjTTnOBEbks5xNpU7S5hTWcw/Qt6fH2vzkttOV/UdKDRfljXKl9uKV0lSPheRmKb9d3FP6i3bGxtubX1itpEsa3x1iaKnLMLjygiHDgOBIa5YDh3awLAUEQ114DgSHNgONU0uR1rR/06fkTbKyUpLafTk5WUpS5F0tnYDhhDUXgOBIajsBwnjYJwHHIbkcBxyGm7AcOIfVwHAkNcsBxyG0LAcEQ114DhJDUmsBxy6UU4DiU0fS5HWpzUZXSxVOOIbCYwHBF0qpwHCyGuzAcchtF4Dgi6Xo4Cjl0puwFBEOHAcCQ1iwHCiGw+wcEQ114CgSHk7AcMIbaXwHHIbn7BwMvLDcTIyQDMMIai8Bwkul3MYDgSG0XgOCIbkcBQRdLaYwFHIacvgKBIa5YDjkNoWA4YQ3qcBwJDydgKOQ0E4DjkNz9g4AultMYCh3AiWJS3IQIa7PWOGcbJeA4IhuRwFHIabsBwRDxTgOBLpeswHHIbQsBwRDXXgKBLpmwHCy6WkvgOOQ3P2DgiG2dgOHENzL4DgSGuzAUaptbSdantL1WelGlNEQ3I4DhRD7WAo5DTTgOBIbksBw7jYMwHBENdeAoWXSo7Acchtk4ChXXp01EetIx/h1iZ6cpdkELsPkMCLrlnkEOFtgXkHEhdXX5BAi7N5hHFtGX8wjoLL8vMO5C20d5BDBdXT5DAi6o7yGEi2wT5Bx4uuR8gji6m7yCHCz1fIIEXXJeQRxbaF5BxIXV1+QQkW1ZrzGOLaCfMY4uufrGHC2wmPIOxC6onyCFi6uzyCBFtovyDsQsvx8w78XUpjyCCF2HyGBF1yzyCFC39O+oOJi6uvyCBF3J3kEMFltL+QRxdc/WEELbZ3mEMF1VPkMJF13MeYdxFtovyDsQuuR8ghgstpryCOLacv5BAi65LyCOLbQvIOLBbep8g7iLuTvII4toJ8xji65+sYWLLSY8ghguqJ8ggBdXZ5BDBbYL8g4kLrkfII4upzHkEELuMv5BCxbes8w5cW2heQcTF1dfmECLvY8whQstJbyDjxdc/WEELbZ3mENFtzL+QwsXVmeQRxbaD5BxIXXI+QQkWe15DHF1OX8ggRdcl5BDhbYM8g4mLqy/IIWLqjvIIEW2yfMI4tv8A6g5R1iZ6cpVvSCXKYfI4FcpWLzPixctZFxI+RLlKw+R8RXKZvM4py1FPkXenLXZeR8SXLWzPI+RLlKi/I4FcpUZ5HCly1knkR8qcpXHyPjTlqbvI4Nct6/EjgVylYvM+NOWtvqPkS5SsvzPitctUmORHFOWop8i705St9Z9nLlrJ3Ej5EuUqL8jgVylRnkfGnLWy/I+5Llr0fI+NOWpu8jglymHyOBXKVi8z7LXLWXIiPkS5SuvyPiK5TkzyOGLlqEv5F3pylb6z405aizyPkS5SovzOFrlrl3Ii405a2X5H3pylcfI+JLlqMx5H3py3FPkcCuUrF5nxpy1t9R8mLlrtPkfEVynJ3mcU5agnzLlTlK31n2FctbO8j5EuUqL8jgVylRnmfFi5ayHyPkS5SsPmfanLU3eRwS5TinyOBXLXbPI+NOWti8j5EuUrL8z405TN5HC1y1tL+RcqcpW+s+JLlrZ3kfJq5avL8SLiK5SszzPjTlrYfI+5LlKw+Z8QXLexyI4py3FPkcCuUrF5HxauWsmcSPkS5SovyPsK5SozyOKctQT5FyFcte8eR8f4uJgsWNKBY25ZihpHYFi8SY2uvFAsbmxRUbQl8UCxt+WLyIm2jsUMY2unFAm2o7FCSbYJxeNRtyOKKjabsUOJvq4oFjbksUcm2hYoJja68UJJtWaxRzbQTijm25+1DSbYTGLxI21E4oWxtdmKBJtovFBMbfji8ubaUxigmNw4oFjblmKEkf6b9rxYxtdeKBY3k7FDCbbS+KKjbn7UETbZ2KGMbUTihLG3cxigSbaLxQTG3I4oYTbaaxRUbTl8UCxtyWKOTbQsUMY29TigWN5OxRUbQTiio25+1CybaTGKGMbUTihbG12YoYR2C8fiTG3I4oqNpzGKCNvGXxQs23rMXlybaFigmNrrxQLG+xihRNtJXFFRtz9uCJts7FDmNuZfFC2NrsxRybaDigmNuRxQkm+1iio2nL4oFjbksUOI7BmLxYxtdeKFsbUdigWNtk44XULUvt8f6JwSqJ7HxgVncsznDhOwLLBLOuvOcCs82copnQl8pQKzvyyFBLO0dlOGLOunOcCs6js5wkTsE5TimdyOc4pnTdnOHCfq5DgVnclnKOJ2hZTglnXXnOErOrNZTimdBOQopnc/fKGidhMZSglnUTnOFrOuzOcCs7ReU4JZ345SimdOYzlBLPDnOBWdyzOcKE/037sMWddec4FZ8nZzhgnbS+U4pnc/fKCWds7KcMWdVOc4Ss7uYynAidovKcEs7kc5wwTtprKcUzpy+coFZ3JZyimdoWU4Ys71OUoFZ8nZzimdBOUopnc/fKFidpMZThizqJznC1nXZnOGCdgvLBLO4HOcUzpzGc4JZ8U5ygVnesylHE7QspwSzrrzlArPNnOEidpK5Timdz98oJZ2zspw5Z3MvlOFrOuzOccTtBynBLO5HOUJE+M1lOKZ05fOcCs7ks5w4TsGZTg1nXXnOFrOo7OcCs7ZOQoQohb1PqXL+id49XL7pI4HoqsRWrOzAEpQgGUbzLomqPW1b26U8nqsjHTWNqzvjuyO1ZwIV0GDas7lSqL69JVnYadRnW1Z2WAjKLDrKt54q3K1Z2x02dLVndggVv2lWQNKsRWrO3ELbtas5lSqCVqzssViTuUqzt2XTX0tG98Vbvas7MASlHAMq3mVPkv1WcR6KqM69ZVnbguisbVvfrTuxO1Zwx02Das7lTx+qyBo1C62rOywEZTh1lG8yo1R62re3SnyZ6rIIBopEZVvfDW5WrO3BdFg2je5dFcl9pVnZYrGYcRSrOPBdERtWcsVYStWdiBdFw2rO+Pin1WwNGqXW1Z24rtuNq3mymUysukqzh0p8meqyMdJfS1Z3xVuVqziIDRcJSre5U+S+0qzsPRVVnUpRvZgCUoIdJVvMqNYetqztj4s9VnfrT4r9VkDTuWHas4cQti6WrOZUqglas7Y8nqshYCMsnp1lW88Vblas48F0WDat7spk5JdJVnYaVQitWduIWw9LVnMqNcetqzssQGtylWRj4r9VnfDXLras7MESlGAMqzmXRVRfW1Z2GnyZylWduK6KxtWd5Yh6h2ECDp/Hp/H/wB/+V/7/wDD/wDf/jdOnT+P/8QAQxAAAQEGBQMCBAQEBQMBCQAAAQACEiFCUWEDERMicQQjUjFDBTJBYhRTctEgM4HhEBVzoaJgY8KCJGSDkaOxs8HS/9oACAEBAA0/AP8Ao0NZfKfTIp0Sm6e9XTVOmU2T0NpoEcs9pWmIOn1zW/IumqjntNFDLaaI5Zl01Tpg6aoNHLaUWhntMYFOiU3VXTVRlKDUNphAI5Z7SnfR01QfyLpqo57TRQy2mihmXTVaZg6fXMIZ5bSno7TROiU3UYumqjKU9DaaItMZl0xTvo6aqORdKjntNEy5kHTRQi6ap0wdNQhnkXTCCOWe00TolN1V01RZbzDpsnobTRFzPaU76OmqDTeRdKeOe00UMtpTwi6ap0wdNQg0ctpoi0M9potMZB03UYumqjKUPTaaIuZl0xTvo6arfkXSi0cw6aKEpUIumqdMpsg0ctphBFoZ7TROiDpqVHIumqjntKeGW00WzMulO5jaf4Hof/Ip0TG6ev5J0zGye8jQL8KDpuz6bzzy0hMarfWqjMaKExotlarTMxqE83MVqDL1oU6Jjdf1qnTMbLUj6+IWvhMMNNMPrG6TDxS7nlm0M1vrVRmNFCY0WytVomY1CeMxonvI0KdExuo18lGYp7yNFqMZeq6fpC1ht0KxsPE1MT0JIaaTxmNFsmNFCtU6ZjULfn60UMtxonRMbr+tU63MbJ7yNAtkxWn5GqexM/VdUycXBwnWsmhk1NlZpQmKeYrVOmY1CeMxonhMaLTYmNSo1qozGy/UaBbMvVafkarfVPHL1onRnuN1g4ujiFjODWYTpmNlqHP1oE8JjROiY1KjXyUZinhMaBbKrTl5/ge9HsvoU6Pc5T3o99ydPucJ78ywToY+b/3daYjqXW+D11H3LKHuWWyD106fcunj7i1BNYp0e5yqPXUfc4T3l9oR6zDmzkbX+XYHufaFvg9dR9yyh7llCD11pmOpcJ4+5ZPfmWKdHucqMHvuUfcT35lk8xMjgMD5qtsoa4ye+9pR9yy2R1LKEHrp0+5cLfNZQ9yydHucqj1063HU4T35lls9xaf5l083B5DBww+9bEUPcTzEHrp0+5cJ4+5ZPD3LLTYjqXKjB66j7i/1LLZB5af5l1vmTx92yGCWs3rFfjWD82UqdPucLUM3rAJ4e5ZOj3LlRg9dR9xPD3LBbJkcPyz+v8AaiGcs/Q1TohtvdPesPLlOmG21099tBda7jnGAtMQhXlb4wryo+NOVDxpytkYV5TphtrynjT91qCkYG6dENt7qsK8qO3b+6etCAuj1gi1Zhpf5dgU8Qt8YQjyo+NOVDxpyoRhXlaZhCounjSnKe+2nKdENt7qMYV5UYbf3T3205TzEYRRZwhm1l+ayhiY4fh5KPjTlbIQhDlQjCvKdMNtRdb4whDlQpGHKdENt7qsK8p1uELXT3205WyMFp+m2vKebjCCYa6YOKHj+6eYjCvKdMNtRdPGlOU8PGMOVpiEL3UYwryow2/uv/TTlbIwinfTbXlb4w/dPGEN0OUOlbP0hky1da+AdqdMNtro4hpCAunhSnKdENtTdRjCvKj4/unh405WyMP3Qwwzuyr/C6Jebp7x+7lOmXi6e8bC6PxMj/itES35W+W/KjLblQltytkt+VpmW4unm5VqDLbY3Tol5uv035Tpl4utSO37RdNdUZcpEfh2FLZb5b8qMtuVCW3K2S35WiZbi6ebltynvGxunRLzdRl+7lRl/unvG3K1MOVHEwB8v3odVjs5Op4y25WyW3KhLflOmW4ut+e23KhLblOiXm6/TflOty8XT3jYXTzEq0/G/KexJUx1PSD5VCX+6eYlvynTLcXTxltynhLblabEtzdRlvyoy/wB1+mwutmW1afjflb5U8ZbcodFiNHb9jS1Onl5Tpl4utQ57bC6eEtuU6Jbm6jL93KjL/dPCWwutkv8AdFnLIQH8H1TordPX8k6a2T0PWgR+Mkf8iFpitVvrVRrRQy9aLZn61TprVPHL1WoM/WhTordf1qo1T0PWgWtiV8V/l2FWi35etVGtFCtFCtVpmtQnjl60T0fWidFbqNaqNU9D1onmM/VN9VgBDrMWtGVGtFsy9aKFap01qFvy9aKGfrROit1/Wqdbz9bJ6HrRbM/Vad6p5vL1Q6/pB/swoVTzFap01qE8cvWieGfrRaYrdRrVRqvp60WzP1Tt6rfl6p45+tEOgxcudNpZdPXyaTprZahy9aJ4Z+tE6K1KjWqjVPDL1otlf4XvLL6FOibmye8vu4Tpm4snvKwsj8Zz+auKtMTX4W+a/CjNbhQmtwtk1+Fpma4snm5v7LUGW6xsnRNzZfqvwnTNxZakd32iyexSN1mF+Awx8y3zX4UZrcKE1uFsmvwtEzXFk83NbhPeVjZOibmyjN9yjN/ZPeVuFqYcyb6vDms2h1uJNVllPGa3C2TW4UJr8J0zXFlvz3W4UJrcJ0Tc2X6r8J1ubiye8rCy2TLT8r8J7EmQ+K9OP92FCZPMTX4TpmuLJ4zW4TwmtwtNia5sozX4UZuLL9VhZbMty0/K/C3zf2TxmtwvwDYO6xRwMA/806ZuLLUOe6wsnhNbhOia5sozfdwozf2TwmsLJ5iL38L30yoap0R23snvSHlwnTHbaye+2gsj8ZYYzZ9fnC0/m214W+EK8KPjThQ8acLZCFeE6Y7a8J4+P7I4gpCBsnRHbeypCvCjHbayDVowFk5inJr6fIvwQ+WzS3whGPCj404UPGnChCFeFpmMKiyePjThPfbThOiO29lGEK8KMdv7J77acJ5iEII9ZNZltMdadjN2GVHxpwtkdu6HChCFeE6Y7aiyD8IRhwoeMIcJ0R23sqQrwnW47bWT3204WyEFp+u2vCebhCKZ+LsR4aZUI7f2TzEIV4TpjtqLJ4+NOE8PGnC0xHbeyjCFeFGO1f8AppwtkIQTvrtrwt8IJ4xhCHC/CfK1Mj0jB22xWU6Y7bWQxDSMBZPDxpwnRHbU2UYQrwo+H7J4eNOFshD9ll6/wPeOf0KdHt8p71d+5On2+F/p2TXx2J401p+mndb46d1H27KHt2WyLt06fbunj7a1Bn27FOj2+VXTunT7fCe/L+0L8NiE7bsr8L45ztLfF26j7dlD27KEdO60zDTuE8fbsnvy7FOj2+VGLv3KPtp78uyeYlWJ1ZlTHWQLucqj7dlshp2UI6d06fbuFv8Absoe3ZOj2+VXTunW4afCe/LstntrT/Lunm5UPi54HdUPbTzEXbp0+3cJ4+3ZPD27LTYhp3KjHTuo+2v9OwWyOmtP8u63+2nj7dkcBgB5nKZN9ACA7nPhlOn2+FqHLt2CeHt2To9u5UYu3UfbTw9uwWz2/wCF6D3BTordPX8k6a2TDLZ+v0ZX+ft5HhjCWmK1K31qo1ooVotlarTNahPN1WoMvWhTordf1qnTWy1I+viEOiJhdpaDfzZ/mtrfWqjWihWi2VqtI1qE8a0T16FOit1Gvko1T16LUYy9U31kvLCY62P/ADTxrRbK0UK1TprULfn60UMvWidFbr+tU63WyevQLZVad6rUbqv87y2+kWsRHKqeYrVOmtQnjWieFaLTYrUqNaqNbL+tAtmXqtO9Vvqnjl60RZwB9fNlYnwjDb3cYRTprZahz9aBPCtE6K1KjXyUap4VoFsr/AGTFPR7linR7nKe9NS6dPucIYGI0O59i/zvEJFtNlHDEdT65rfkNS6jn3LLAZBLuJmW4QAqSV0mIwxiYOLiZwMydMdS6eOXcTLQz7npAp0e5yqat1H3EWodz1gEx8MJJeu2tPEzGpl7rS35DUuo59yyhl3LLUGCet1NgxPFaZjqfXMJ45dxPR7lk6Pc5UYat1H3U9DuWTzGY1Ees3l7OfDX47NgPZTYijn3LLZkdSyhDUuumaDHWY5xG87hhNsksdz5gRBQz7lk6Pc5VNS6dbzOpwnodyy2Z9xO+updHEbyGpdf56MjbLERZYjqWTwhqXTpjqXCic2sT6ZLo2xnrtZarBnZWmMjqcqMNS6j7i+ncstmY1PRO+updb8hqJ45nU9II4mAANXOZN/AsCLTX10cNOn3OE00cu56wTwz7llhsjNtrEJjmYVJWMyThtMtHduoo+6nhl3LINMZjUR9P8SyaJ7yFCnRMLp71h5J0zCyZ6TFp+Uv83xGrTI9KxB4LfSqjMKLBaGP15DS+KdKwcHD/oGh/uy2tMzCoTzcwWoKUKdEwuv6VTpmFlqW8Qh8Gb/rtxUNQfT81pb4wqozCibZGD0z2X80hfjGOrxcQysN/Iup6QYw3CZ0p4zCie8hQp0TC6jGHkozBPeQotRiiGOG8ofmsr8VnxvxE8ZhRbJhRdLg6pMJV1mN+LYbtht7/wDdptfhThNm7AdUJhROiYXX9Kp1uDwsnvIUC2TBafkKp7EjBH4+xH/4WIjh4cw8U8xGFU6ZhUL4piHAwwz4Tr4l0QZxBD52v2bZWmxCFSo0qozBfqFAtlFp+Qqt9E8ZhRHqunCb+CYHzTdlOmYWWoaUCeEwouhZ1esbZ+jS+H9WYUDX92WlGYJ4TCgWyMP4HT/9k942KdEvKe9HfuTpl4Q6PFlqwj8RbP8AviprpMJr5bLfLddNhtkB0b2strK+K4haDbTMn92kMQYLZdo1+zRTplunm5VqDLbYp0S8r9N06ZeFqeP2hMfBGz/9HEQaxR8v3rfLdRlsvhve6xoVn/8A0ysTpe2w7MIsrotTAId9NwaZTxlsnvGxTol5UYO/coyp7xstTDlTLIa+W7S1jLTFbTxlstktl8SxGDisCVmRDom+m+X1BGRP9Sc18P6pvNl3yH7stKEtk6JeV+m6dbl4T3jYJ5iVafjdDVl5R+Osf/haTXT4TTzv2p5iW6GGSS0yMmQMl8H29K8zBtqT910HVAEu8NMrGwMPFYLv0azIUZbqMq/TYLZKtPxut8qeMtkeswJbNpv4RgAFpn/tNJ0y8LUMtgsFkDCYdG/FI2hfGGtYttM5taS6/BbxmBWdRlTwlsFsl/gdOW0lPR2mhTolN1jxIwmc9Fh75mljYZbw8TDZJDYOWRC0MhtNlrsN/KfLER6DAOTp9XQt+W01TGNqddjsSrBw2MLDYdMGWRkF0ePht5u12rH6LDxDtPqQM08ctpWoM9poU6JTdMMltttpkgAAxJKw89QYbJzZT0NpoEx8CxP9unaQxsWUmdb8tpqjmx02C1mNRtfFWtUltmIwk8M9pqg0cbADp8v2aZTxy2miejtNE6JTdRlNVgYbbeJiNMnIBM7mMDHwnGm2QJU8xntKw+lBIdtiItEgOnzUZTRQGBgejWM3l8oXXNf+x4bTJ2MVTplNQuvwm8bBDptif+TShntNE6JTdfpNU63ntNk9DaaJtwtMMYZaLAq2sXDew8TDzLJGf0Qw8cjaaFH42D8v000ejwD8p8AnmJTVdb2up08+0zRYeZxcZ09xuZpMYOsxtMm5YGD+Gb2kxZP7OqMpqoylfTaaLZntKd8TVMtNjJpkhl7P5Q0njntNEeuw5SJG030WGwXmbNp0ymyeOW00XwxoHqcbD9w/3+VlMYYZYYZZOQAzXVs6GIYiZpn/AMwoylPCU0WzPaf4GGScTExsRwMjlYfriYGGSwhh5sYLWE0C2viuYwGG2iHGPNldU0T0+PE6SxGQGBiMtDV3M/Kgz05+arawfh2Ay3h677fyCUTINHX63EnHP/iysT+f1WI1uxVDPcacLE6bthlolokHNfDWDhYuG20QQy9tTxz3H9k8Cww1iEtGHiGU6BuZxR/4L+b1vWM5hksrpMPJvA1Y4+XNfFZ911kuhH4JihhuIH8gMoY+KAcfFyLfCbz77TOwIbsPodXYxZpQmNOFCY14XxPBGC3u2+H/APCeOe404WG0IvEknL0FSjTCUfFdN3uoLc6+FMhrDY6ZqOIyyOItLDy1WGcJorD6IgPbJGljMlgbW2i008zBlSNtMrDyOH0Ba2jm1kMstxrwnT7hqLLEzwMdtmNqUbRyybwsd/6WCdH83qciq4TLgrMmM5mV1OzALbIaDC+IZHG1cQnRBv5LGazxcBponR/Y/esRjEYPUvfIW0firwKY6TAYbw+mlaDFSsRoD8bi81OTK6lknH6lpq8qeOe404TUCHjEEGyw8bVwNXEdBAUYs4hP14TpyGJjF48Mo/8AaxafoTFMDFXXs6beOyyWDhs2QJba+IMYhzDVmfFdBh6vT9W00WiRKzVpYfWBvPFZgWXSFh4AJbaa2jc2gyRsw8U0+xYxP4rrsTZs5lRaDePjtNF7GbTo9w1Nl8J6o4zTrRJDJWOyc2NQ5sNTMlPDPcaCyDm/FxnAsPD1GmOmxdR0Z1/x6V84vT4PpilFrfqMs4jRgYlppOj2MNMZBhhnIAAH0ATebRYxGh6wyIosGGHidM0MJsBdMz07GGwWs5mVjtFvCGoWQGFhvs4eDh5BkDP6AKMwooTCi2QeFV12F3y3iBlysqOYxMPExWnVjN9zUaOn+7SdHysgLEaexNLIPxTpmFk96Y7LLcoqF1eDoYreG1K0vhjWOcXDeocv92skH8sPCZDAUZhRQmFFCDwqsBltvCx8JoZsFM5jTx2mlgfL02E0YoMjJ3AwxWyjBllkfXhRmCe8hRYmIw+21gYebSOHkW8DCw2DxmAsFpvqcRhufYy6mc9mE6wPSgC2ReFFCDwqnTMKhNNEuNtD1AgRQpvKDOIy2Aqt4oYXp22WczGqdbpayelyH04WyYJvDyIaaBBBPoUy1iZYeE6yymMfCOTOUNy6tkY5xG2WS0wyflZTzEHhVOmYVCeMwonhMKIYTAOJgYoD6xIYmDjtXqym44hxMR1hD07DKLmfYZRw3S3gYTLByzW+YJhlwnUyBZo0ulc0jgNDCgJdqxOmbYAvqJjAGtjYrDLRbbmTGIcsPCdZZ9B9AE8JhROiYVKbZbYbw2mgQQTkQV1u/BGI0CME3R+cYWIAf+CMrLQYH/ItLSI1Tjlo/wCLpgnvEUKdEounvV0eSdMosnvEUCxnBiMemawMBjCw8NlkbQDBb4uiqjKKKEootkXRVOmUVTxlC1BKKFOiUXVXRVOmUWT3iPEJ5iULrGQeoxWWYtxW+LoqoyiihKKKEXRVaZg6KhPGUUT3iKFOiUXUYujyUZQnvEUTzEoWn4iqbzDWMzhsvED0BPrBPGUUWyDoooRdFU6ZRULfKKKEoonRKLqroqnW4Oiye8RQLZKFp+Iqnm4uhHPMNMiMFCUJ5iLoqnTKKhPGUUTwlFFpsQdFSoxdFVGUL9IoFsi6Fp+Iqt8oTxlFFCUL4biPYBZayZ+aaqdMostQyigTwlFE6JRUqMXRVRlCeEooFslC0/EV/wAXSnvE0N06JTe6e8fu5TplNrp7xNBdPMSn91oiU15W+U15UZTTlQlNOVslvytMymounm5T+61Bltsbp0Sm91+m/KdMptdakdp8RdPMSn91p+Jryt8t+VGU05UJTTlbJTXlaJlNRdPNymnKe8TQ3TolN7qMv3cqMp/dPeJpytRjLatPxNeVvlP7p4ymnK2SmnKhKa8p0ymout+e23KhltNOU6JTe6/TflOtym1094mgunmJT+60/E15T2JntTxlNDdQlP7p5iW/KdMpqLp4ymnKeEppytNiU1N1GW/KjKbXX6TQXWzLatPxNeVvlP7p45bTTlQlP7qEt+U6ZTa61DntsLp4SmnKdEpqbqMv3cqMp/dPCU0F1slP7rS8TXn/ABdKej3WqG6dHuNXunvI1Tp9xq109DuNUF1DPuNLTHuNeua35dxqqjn3GqcqGXcapytme41Tp9xqvKeOXcaTwz7jVCnR7jV7r/Uaqo+40nodxqgUM+40nfzGq8rfluNVHPuNU5UMu41TlQz7jVVpn3GvXMKOXcaT0e41TlOj3Gr3UZjVR91r909DuNU5TzGfcKd/Maryt+XcaUc+41TlbMu41RQ9xqqdPuNVF1HLuNUUM+41ROj3Gr3X+o1VOt59xqyeh3GqcrZn3Gk7+Y1XlPN5binjn3GqcqHuNJ4TGqdPuNVF08cu41RPDPuNU5WmMu41dR9xqqj7rS+ncapytmfcKd/Maryt+XcaTxz7jVFD3GlD3Gqp0+41a6eOXcaonhn3G6J0e61U3UZjVR9xpPDLuNU5WzPuNLT/ADGvXP8AgGJDdYp0Tcp71e+5OmbhPeVgnmJloia63zXUZrKE1lsmutMzXCebmWoJrFOiblfqunTNwtTy+0J5iZafldb5rqM1lCay2TXWiZrhPNzWT3lYp0TcqMXvuUZk95WWphzLT8rrfMnjNZbJrKE106Zrhb5rKE1k6JuV+q6dbm4T3lYLZMtPyunsSZPGaxUJk8xNdOma4TxmsnhNZabE1yozXUZuF+qwWyZafldb5k8ZrKEyhNdOmbhahmsE8JrJ0TXKjF77lGZPCawWyZaMd1/4HrUKdEounvR0eSdMosnvEUCeYlC0RF0VW+UVUZRRQlFFsg6KrTMoqE83KFqCUUKdEouv0iqdMostTxHiE8xKFp+Iqt8HRVRlFFCUUWyUVWiYuioTxlFE94ihTolF1GDo8lGUJ7xFFqMShafiKrfKE8ZRRbJRRQlFU6ZRULfKKKEoonRKLr9IqnW4uiye8RQLZKFp+IqnsSUJ4yihUJQnmIOiqdMoqE8ZRRPCUUWmxF0VKjKKqMoX6RQLZKFp+Iqt8oTxlFFCUKEoqnTKLLUMooE8JRROiUVKjB0eSjKE8JRQLZKEWQAYX/gHqRh5wyKdGXZN1/pmqjn2Si1DsmiGWfZK0wP5J9c0c8u2awQzz7Jojll2TRDLPtn6FO/klFo5dkoNZtds+mRTo9kr/TNUM8+yUWtvbPpkEMs+yfonfyTVHPLtlDPPsmiOWXZKGWfbNVpkfyT65hHPLslBqPZNE6MuyVH2zVDPPslH07JomWmM+2U67/JNUc8u2fqh69k0TWWXZNEMs+2ap0+yUc3e2fqEMs+yaJ0Zdk3X+maoMnPsm2SLUOyaIZZ9kp3L+SfXNNNN5dsoevZNEcsuyU8M+2foU6fZNkc8uyaINDPsmiLIA7J9YqPtmqGefZKPp2TRDJ7tlO5fyT65o55dsplo59k0Ryy7JUPbNU6fZNkWiWe2fTJBoZ9k0To9k3Rzy7Zqhnn2Si1DsmiGWfZKH0aZy/6N/8QAFBEBAAAAAAAAAAAAAAAAAAAAgP/aAAgBAgEBPwBkf//EAB0RAAIDAQEBAQEAAAAAAAAAAAABEBESIDAxIUH/2gAIAQMBAT8AKMmTJkyZMmTJkyZMmTJkyZMmTJkyZMmTJkyZMmTJka8GKF2vBi8GKHKZYyyxsTLQmostFljaEz+lotFotFotDEy0Wi0WWixDYmixuVDlihdrwYu0MUOVDli8GLwYumIYofLU/RRRU0UUxH9KPhTioaEnFcNOhIaEihwpfChT94QvvbFC4cMUOFLGyuE5QobEIuFFlj/S6FzcP9PkOF0xKXNd0KWKa6RRUKaliRRRRRRUMRRRRRRRQxKKmooYvJihdrwYvBihymaNGjRo0aNGjRo0aNGjRo0aNGjRo0aNGjRo0aNGjQ3H/9k=;" vertex="1" parent="1">
          <mxGeometry x="121.06" y="105.62" width="157.89" height="50" as="geometry" />
        </mxCell>
        <mxCell id="RBlReTlnHc9ZyLNr44-u-46" value="&lt;b&gt;Optimized CNN (38 Layers)&lt;/b&gt;" style="rounded=0;whiteSpace=wrap;html=1;" vertex="1" parent="1">
          <mxGeometry x="455" y="295.62" width="155" height="60" as="geometry" />
        </mxCell>
        <mxCell id="RBlReTlnHc9ZyLNr44-u-48" value="&lt;div&gt;&lt;span style=&quot;background-color: transparent; color: light-dark(rgb(0, 0, 0), rgb(255, 255, 255));&quot;&gt;&lt;b&gt;Adam | RMSprop&lt;/b&gt;&lt;/span&gt;&lt;/div&gt;" style="rounded=0;whiteSpace=wrap;html=1;" vertex="1" parent="1">
          <mxGeometry x="620" y="295.62" width="120" height="60" as="geometry" />
        </mxCell>
        <mxCell id="RBlReTlnHc9ZyLNr44-u-49" value="&lt;b&gt;Classification Models&lt;/b&gt;" style="text;html=1;align=center;verticalAlign=middle;resizable=0;points=[];autosize=1;strokeColor=none;fillColor=none;" vertex="1" parent="1">
          <mxGeometry x="135" y="266.12" width="130" height="30" as="geometry" />
        </mxCell>
        <mxCell id="RBlReTlnHc9ZyLNr44-u-51" value="" style="shape=flexArrow;endArrow=classic;html=1;rounded=0;entryX=0;entryY=0.5;entryDx=0;entryDy=0;exitX=1;exitY=0.5;exitDx=0;exitDy=0;textShadow=0;labelBackgroundColor=light-dark(#FFFFFF,#EDEDED);labelBorderColor=none;strokeColor=#000000;fillColor=#000000;" edge="1" parent="1" source="RBlReTlnHc9ZyLNr44-u-1" target="RBlReTlnHc9ZyLNr44-u-5">
          <mxGeometry width="50" height="50" relative="1" as="geometry">
            <mxPoint x="290" y="148.12" as="sourcePoint" />
            <mxPoint x="340" y="98.12" as="targetPoint" />
            <Array as="points" />
          </mxGeometry>
        </mxCell>
        <mxCell id="RBlReTlnHc9ZyLNr44-u-52" value="" style="shape=flexArrow;endArrow=classic;html=1;rounded=0;exitX=0.5;exitY=1;exitDx=0;exitDy=0;fillColor=#000000;" edge="1" parent="1" source="RBlReTlnHc9ZyLNr44-u-26">
          <mxGeometry width="50" height="50" relative="1" as="geometry">
            <mxPoint x="530" y="450" as="sourcePoint" />
            <mxPoint x="405" y="560" as="targetPoint" />
            <Array as="points" />
          </mxGeometry>
        </mxCell>
        <mxCell id="RBlReTlnHc9ZyLNr44-u-53" value="" style="shape=flexArrow;endArrow=classic;html=1;rounded=0;entryX=0.5;entryY=0;entryDx=0;entryDy=0;textShadow=1;fillColor=#000000;" edge="1" parent="1" target="RBlReTlnHc9ZyLNr44-u-26">
          <mxGeometry width="50" height="50" relative="1" as="geometry">
            <mxPoint x="200" y="370" as="sourcePoint" />
            <mxPoint x="285" y="430" as="targetPoint" />
            <Array as="points">
              <mxPoint x="200" y="390" />
              <mxPoint x="405" y="390" />
            </Array>
          </mxGeometry>
        </mxCell>
        <mxCell id="RBlReTlnHc9ZyLNr44-u-54" value="" style="shape=flexArrow;endArrow=classic;html=1;rounded=0;entryX=1;entryY=0.5;entryDx=0;entryDy=0;strokeColor=default;fillColor=#000000;" edge="1" parent="1" target="RBlReTlnHc9ZyLNr44-u-22">
          <mxGeometry width="50" height="50" relative="1" as="geometry">
            <mxPoint x="445" y="317" as="sourcePoint" />
            <mxPoint x="525" y="413.88" as="targetPoint" />
            <Array as="points" />
          </mxGeometry>
        </mxCell>
        <mxCell id="RBlReTlnHc9ZyLNr44-u-55" value="" style="shape=flexArrow;endArrow=classic;html=1;rounded=0;entryX=0.513;entryY=0.023;entryDx=0;entryDy=0;exitX=0.5;exitY=1;exitDx=0;exitDy=0;entryPerimeter=0;strokeColor=default;fillColor=#000000;" edge="1" parent="1" source="RBlReTlnHc9ZyLNr44-u-5" target="RBlReTlnHc9ZyLNr44-u-42">
          <mxGeometry width="50" height="50" relative="1" as="geometry">
            <mxPoint x="540" y="240" as="sourcePoint" />
            <mxPoint x="695" y="240" as="targetPoint" />
            <Array as="points" />
          </mxGeometry>
        </mxCell>
        <mxCell id="RBlReTlnHc9ZyLNr44-u-56" value="" style="shape=flexArrow;endArrow=classic;html=1;rounded=0;fillColor=#000000;" edge="1" parent="1">
          <mxGeometry width="50" height="50" relative="1" as="geometry">
            <mxPoint x="144" y="570" as="sourcePoint" />
            <mxPoint x="144.29000000000002" y="640" as="targetPoint" />
            <Array as="points" />
          </mxGeometry>
        </mxCell>
        <mxCell id="RBlReTlnHc9ZyLNr44-u-57" value="" style="shape=flexArrow;endArrow=classic;html=1;rounded=0;fillColor=#000000;" edge="1" parent="1">
          <mxGeometry width="50" height="50" relative="1" as="geometry">
            <mxPoint x="247" y="570" as="sourcePoint" />
            <mxPoint x="246.79" y="640" as="targetPoint" />
            <Array as="points" />
          </mxGeometry>
        </mxCell>
        <mxCell id="RBlReTlnHc9ZyLNr44-u-58" value="" style="shape=flexArrow;endArrow=classic;html=1;rounded=0;fillColor=#000000;" edge="1" parent="1">
          <mxGeometry width="50" height="50" relative="1" as="geometry">
            <mxPoint x="355" y="570" as="sourcePoint" />
            <mxPoint x="354.81" y="640" as="targetPoint" />
            <Array as="points" />
          </mxGeometry>
        </mxCell>
        <mxCell id="RBlReTlnHc9ZyLNr44-u-59" value="" style="shape=flexArrow;endArrow=classic;html=1;rounded=0;fillColor=#000000;" edge="1" parent="1">
          <mxGeometry width="50" height="50" relative="1" as="geometry">
            <mxPoint x="679" y="570" as="sourcePoint" />
            <mxPoint x="679.29" y="640" as="targetPoint" />
            <Array as="points" />
          </mxGeometry>
        </mxCell>
        <mxCell id="RBlReTlnHc9ZyLNr44-u-60" value="" style="shape=flexArrow;endArrow=classic;html=1;rounded=0;fillColor=#000000;" edge="1" parent="1">
          <mxGeometry width="50" height="50" relative="1" as="geometry">
            <mxPoint x="464" y="570" as="sourcePoint" />
            <mxPoint x="464.29" y="640" as="targetPoint" />
            <Array as="points" />
          </mxGeometry>
        </mxCell>
        <mxCell id="RBlReTlnHc9ZyLNr44-u-61" value="" style="shape=flexArrow;endArrow=classic;html=1;rounded=0;fillColor=#000000;" edge="1" parent="1">
          <mxGeometry width="50" height="50" relative="1" as="geometry">
            <mxPoint x="570" y="570" as="sourcePoint" />
            <mxPoint x="571.79" y="640" as="targetPoint" />
            <Array as="points" />
          </mxGeometry>
        </mxCell>
      </root>
    </mxGraphModel>
  </diagram>
</mxfile>
